<svg xmlns="http://www.w3.org/2000/svg" xmlns:xlink="http://www.w3.org/1999/xlink" width="12" height="9" viewBox="0 0 12 9"><defs><path id="stqya" d="M218 464v8.73h12V464h-12z"/><path id="stqyc" d="M221.97 467.87h-.82a.17.17 0 0 1-.14-.05c-.13-.15-.27-.28-.41-.42l-.4-.4a.97.97 0 0 1-.1-.13.32.32 0 0 1 0-.4l.12-.14a595.39 595.39 0 0 1 1.58-1.58.3.3 0 0 1 .34 0l.13.1 1.5 1.52c.05.06.1.13.13.2.05.14 0 .26-.1.36l-.3.32-.54.54c-.06.07-.12.09-.2.09h-.79zm2.04 1.81h-5.16c-.06 0-.08-.01-.08-.08v-.88c0-.06.01-.08.08-.08h9.98l.18.01c.14.02.23.1.23.24v.75c0 .05-.03.04-.06.04H224zm-4.01-1.81H218.85c-.09 0-.09 0-.09-.08v-2.25-1.04c0-.25-.18-.41-.43-.39-.19.02-.32.19-.32.4l-.01 3.5v4.62c0 .1.01.1.1.1h.55c.11 0 .11 0 .11-.11v-2.06c0-.12 0-.12.12-.12h10.26c.1 0 .1 0 .1.11v2.1c0 .05.02.08.08.08h.6c.06 0 .08-.02.08-.1v-.29-3.27c0-.14 0-.29-.06-.42-.15-.36-.4-.6-.77-.73-.15-.05-.32-.05-.48-.05h-4.74l.05-.06.22-.22c.24-.22.36-.49.39-.8a1.2 1.2 0 0 0-.33-.98l-1.42-1.43c-.17-.18-.38-.31-.63-.35-.42-.08-.8 0-1.11.32l-1.42 1.42c-.18.19-.3.4-.35.67-.05.33-.01.66.2.93.1.16.25.29.38.43l.07.07z"/><clipPath id="stqyb"><use xlink:href="#stqya"/></clipPath></defs><g><g transform="translate(-218 -464)"><g/><g clip-path="url(#stqyb)"><use fill="#acb1bf" xlink:href="#stqyc"/></g></g></g></svg>