<svg xmlns="http://www.w3.org/2000/svg" xmlns:xlink="http://www.w3.org/1999/xlink" width="12" height="11" viewBox="0 0 12 11"><defs><path id="adp7a" d="M293.88 473.08H282v-10.05h11.88z"/><path id="adp7c" d="M293.25 467l-.18-.77h.32l.03.03c-.01.19.03.38-.03.57-.02.06-.07.12-.1.17h-.04zm-10.45-.77l-.18.77-.05-.03a.41.41 0 0 1-.11-.28v-.4c0-.05.01-.06.05-.06h.3zm5.14 5.48h-1.3c-.05 0-.07-.02-.07-.08v-.76c0-.06.01-.08.07-.08h2.6c.05 0 .07.02.07.08v.77c0 .05-.02.07-.07.07h-1.3zm4.93-4.2l-.35-.1-.78-.12c-.83-.1-1.67-.13-2.5-.14-1.03 0-2.06 0-3.09.02-.47 0-.94.03-1.41.06-.49.03-.97.1-1.44.2l-.3.08.01-.1c.07-.33.13-.66.22-.98.2-.72.45-1.42.88-2.03.24-.33.52-.61.9-.78.2-.09.42-.13.64-.13h4.6c.5 0 .9.22 1.23.57.32.33.55.73.74 1.15a8 8 0 0 1 .49 1.47l.16.75v.08zm-4.67.08l1.93.04c.54.02 1.09.07 1.63.12.38.04.76.1 1.12.25.2.08.38.19.46.4.05.12.07.26.07.39v1.95l.01.9c0 .05-.02.07-.07.07h-.32c-.05 0-.07.02-.07.06v.38c0 .27-.2.47-.47.47h-.89a.46.46 0 0 1-.46-.47v-.37c0-.06-.02-.07-.08-.07h-1.21c-.07 0-.09-.02-.09-.09v-1.02c0-.17-.08-.26-.26-.26h-3.12c-.18 0-.27.09-.27.27v1.02c0 .06-.02.08-.07.08h-1.22c-.06 0-.08.02-.08.08v.37c0 .26-.2.46-.46.46h-.9a.46.46 0 0 1-.47-.46v-.39c0-.05-.01-.06-.06-.06h-.32c-.06 0-.07-.02-.07-.08v-2.38-.45c0-.44.18-.68.6-.83.36-.13.74-.19 1.12-.23 1.24-.13 2.5-.13 4.02-.15zm-6.2 2.63v1.48c0 .2.11.39.29.43.15.03.17.11.2.24.07.4.44.7.84.7h.98c.45 0 .84-.36.88-.81 0-.08.03-.1.1-.1H290.6c.04 0 .08 0 .08.07a.9.9 0 0 0 .9.85h.94c.12 0 .24-.03.34-.08a.9.9 0 0 0 .56-.78c0-.02.02-.05.04-.05.25-.03.42-.24.42-.5v-1.94c0-.4-.01-.8-.04-1.21a.93.93 0 0 0-.35-.7.31.31 0 0 1-.13-.23c0-.06 0-.1.06-.12.3-.18.45-.45.46-.8v-.42c0-.28-.2-.48-.48-.48h-.4c-.05 0-.08-.01-.1-.05l-.31-.8a4 4 0 0 0-.88-1.27c-.43-.4-.94-.63-1.53-.62h-4.6c-.2 0-.39.04-.57.1-.45.15-.8.43-1.1.8a5.53 5.53 0 0 0-.94 1.77c-.01.05-.04.07-.09.07h-.42c-.26 0-.46.2-.46.46v.41c0 .38.16.65.48.84l.04.04c.02.06-.03.23-.08.27a.99.99 0 0 0-.33.43c-.08.2-.1.42-.1.63-.01.46 0 .91 0 1.37z"/><path id="adp7d" d="M284.39 468.97h.56c.15 0 .25.1.25.24v.43c0 .15-.1.24-.25.24h-1.13a.45.45 0 0 1 0-.91h.57zm0 1.37h.61c.29-.01.57-.23.62-.5a2.35 2.35 0 0 0 0-.88.68.68 0 0 0-.65-.45h-1.15a.92.92 0 0 0-.9.8.92.92 0 0 0 .89 1.03h.58z"/><path id="adp7e" d="M291.48 469.88h-.56c-.15 0-.24-.1-.24-.25v-.42c0-.15.1-.24.23-.24h1.15a.45.45 0 0 1 0 .9l-.58.01zm0-1.37h-.58c-.38 0-.68.3-.68.69v.44c0 .4.3.7.7.7h1.13c.46 0 .85-.35.9-.8a.92.92 0 0 0-.89-1.03h-.57z"/><clipPath id="adp7b"><use xlink:href="#adp7a"/></clipPath></defs><g><g opacity=".8" transform="translate(-282 -463)"><g opacity=".8"><g opacity=".8"/><g clip-path="url(#adp7b)" opacity=".8"><use fill="#acb1bf" xlink:href="#adp7c"/></g></g><g opacity=".8"><use fill="#acb1bf" xlink:href="#adp7d"/></g><g opacity=".8"><use fill="#acb1bf" xlink:href="#adp7e"/></g></g></g></svg>