<svg xmlns="http://www.w3.org/2000/svg" xmlns:xlink="http://www.w3.org/1999/xlink" width="13" height="14" viewBox="0 0 13 14"><defs><path id="lioia" d="M181.04 253.94h-2.6v-3.34c0-.68-.63-1.23-1.4-1.23h-1.88c-.77 0-1.4.55-1.4 1.23v3.34h-2.48a.18.18 0 0 1-.18-.17v-6.78l5.04-4.73 5.03 4.54.05 6.97c0 .1-.08.17-.18.17zm1.22-7.38v-.01a.5.5 0 0 0-.17-.36l-5.58-5.05a.56.56 0 0 0-.76.01l-5.58 5.24c-.06.05-.1.1-.13.17a.48.48 0 0 0-.04.2v7c0 .69.57 1.24 1.28 1.24h3.03c.3 0 .55-.24.55-.53v-.05-3.82c0-.07.12-.18.3-.18h1.88c.18 0 .3.1.3.18V254.47c0 .3.24.53.54.53h3.16c.7 0 1.28-.55 1.28-1.24l-.06-7.2z"/></defs><g><g transform="translate(-170 -241)"><use fill="#acb1bf" fill-opacity=".8" xlink:href="#lioia"/></g></g></svg>