<svg xmlns="http://www.w3.org/2000/svg" xmlns:xlink="http://www.w3.org/1999/xlink" width="22" height="18" viewBox="0 0 22 18"><defs><path id="ee24a" d="M491.93 594.33l.1-.42c.24-.82.79-1.43 1.46-1.93a5.2 5.2 0 0 1 1.99-.83 6.8 6.8 0 0 1 2.08-.12c.7.06 1.38.28 2.01.6a5.86 5.86 0 0 1 2.96 3.23c.25.66.37 1.35.31 2.05a6.87 6.87 0 0 1-.82 2.66 12.78 12.78 0 0 1-2.82 3.5c-.92.83-1.85 1.65-2.78 2.46l-2.62 2.24-1.12.96c-.43.39-1.24.35-1.7-.06-1.1-1-2.24-1.97-3.37-2.96l-2.72-2.4c-.72-.63-1.39-1.31-1.97-2.06-.63-.81-1.16-1.67-1.53-2.63a5.52 5.52 0 0 1-.36-2.62c.08-.76.35-1.47.75-2.12a6.16 6.16 0 0 1 8.19-2.12 3.9 3.9 0 0 1 1.76 2.16l.1.42.1-.01"/></defs><g><g clip-path="url(#clip-04F55F79-5DC7-4512-9ACB-7C56A36897CF)" transform="translate(-481 -591)"><use fill="#8fdc47" xlink:href="#ee24a"/></g></g></svg>