<svg xmlns="http://www.w3.org/2000/svg" xmlns:xlink="http://www.w3.org/1999/xlink" width="18" height="16" viewBox="0 0 18 16"><defs><path id="8zkha" d="M1289.95 45.26c-.01.14-.05.35-.1.63-.19 1.09-.52 3.13-.93 5.22a284.62 284.62 0 0 1-1.67 7.78c-.1.53-.4.92-.8 1.05a1.1 1.1 0 0 1-.35.06 1.8 1.8 0 0 1-1.12-.49l-.02-.02c-.15-.15-1.83-1.5-3.37-2.7-.35.36-1.6 1.67-2.32 2.25-.13.1-.29.16-.43.16a.42.42 0 0 1-.23-.06l-.1-.08a1.02 1.02 0 0 1-.43-.62l-1.4-4.78a48.24 48.24 0 0 1-3.84-1.38c-.57-.25-.86-.56-.84-.92.04-.54.84-.9 1.21-1.01a229.63 229.63 0 0 1 15.19-6.2c.7-.21 1.1-.2 1.36.02.3.25.25.7.2 1.1zm-11.46 13.08v.02c.08-.84.26-2.7.35-3.8v-.04l.02-.04c.02 0 .02-.02.02-.02l.02-.02v-.02c1.42-1.28 3.57-3.25 5.2-4.75l2.37-2.2.07-.12-.04.02c-.02 0-.02.02-.03.02l-.08.06-9.3 6.16c.23.78 1.32 4.5 1.4 4.73z"/></defs><g><g transform="translate(-1272 -44)"><use fill="#f9f9f9" xlink:href="#8zkha"/></g></g></svg>