<?xml version="1.0" encoding="utf-8"?>
<!-- Generator: Adobe Illustrator 20.1.0, SVG Export Plug-In . SVG Version: 6.00 Build 0)  -->
<svg version="1.1" id="Layer_1" xmlns="http://www.w3.org/2000/svg" xmlns:xlink="http://www.w3.org/1999/xlink" x="0px" y="0px"
	 viewBox="0 0 440.5 140" style="enable-background:new 0 0 440.5 140;" xml:space="preserve">
<style type="text/css">
	.st0{fill:#B1B3B6;}
	.st1{fill:#082F36;}
</style>
<g>
	<ellipse class="st0" cx="48.4" cy="133.2" rx="48.4" ry="6.8"/>
	<path class="st1" d="M152.1,73.5c1.6,2.7,2.5,5.8,2.5,9.3c0,4.9-1.7,9-5.2,12.2c-3.5,3.2-7.8,4.8-12.9,4.8c-2,0-4.1-0.3-6.1-0.9
		c-2.1-0.6-4.1-1.4-6-2.5c-0.9-0.4-1.7-0.5-2.4-0.3c-0.7,0.2-1,0.8-1,1.8v1.9h-5.7V78h5.7v8.1c0.6,1.2,1.5,2.3,2.7,3.3
		c1.1,1,2.4,1.8,3.8,2.5c1.4,0.7,2.8,1.2,4.3,1.6c1.5,0.3,3,0.5,4.4,0.5c1.4,0,2.8-0.3,4.4-0.8c1.5-0.5,2.8-1.3,3.8-2.2
		c1-0.9,1.8-1.9,2.4-3.1c0.7-1.2,1-2.5,1-3.9c0-1.4-0.1-2.7-0.4-4.1c-0.3-1.3-1.1-2.7-2.5-4.1c-0.7-0.7-1.9-1.4-3.5-1.9
		c-1.7-0.5-3.6-1.1-5.8-1.7c-2.6-0.7-4.7-1.3-6.5-1.8c-1.8-0.5-3.3-0.9-4.6-1.3c-1.4-0.4-2.7-1-4.1-1.8c-1.3-0.8-2.4-1.7-3.1-2.9
		c-1.5-2.2-2.2-4.9-2.2-8.1c0-4.8,1.6-8.7,4.8-11.6c3.2-2.9,7.3-4.3,12.1-4.3c1.6,0,3.4,0.1,5.2,0.4c1.8,0.3,3.5,0.8,5.1,1.6
		c0.3,0.2,0.7,0.3,1.2,0.4c0.5,0.1,0.9,0.2,1.3,0.2c0.4,0,0.7-0.2,1-0.5c0.3-0.3,0.4-0.8,0.4-1.5v-0.7h5.7v18.1h-5.7v-6.2
		c-1.5-2.3-3.5-3.8-5.9-4.7c-2.4-0.9-5-1.3-7.6-1.3c-1.5,0-3.1,0.3-4.6,0.8c-1.5,0.5-2.7,1.2-3.6,1.9c-0.9,0.7-1.5,1.7-2.1,2.8
		c-0.5,1.1-0.8,2.2-0.8,3.2c0,0.8,0,1.7,0.1,2.6c0.1,1,0.4,1.8,1,2.6c0.5,0.7,1.2,1.3,2,1.6c0.8,0.3,1.6,0.7,2.3,0.9
		c0.6,0.3,1.6,0.6,2.9,1c1.3,0.4,2.9,0.8,4.9,1.4c2.6,0.6,4.8,1.3,6.6,1.9c1.8,0.6,3.3,1.2,4.4,1.8c1.2,0.6,2.3,1.2,3.5,1.8
		C150.2,71.1,151.2,72.1,152.1,73.5z"/>
	<path class="st1" d="M193.2,92.4c-1.9,2.3-4.1,4.1-6.7,5.4c-2.6,1.3-5.5,2-8.7,2c-2.8,0-5.4-0.5-7.8-1.6c-2.4-1-4.5-2.4-6.3-4.2
		c-1.8-1.8-3.2-3.9-4.2-6.3c-1-2.4-1.6-5-1.6-7.7c0-2.8,0.5-5.3,1.6-7.7c1-2.4,2.4-4.5,4.2-6.3c1.8-1.8,3.9-3.2,6.3-4.3
		c2.4-1,5-1.6,7.8-1.6c1.9,0,3.8,0.3,5.5,0.8c1.8,0.5,3.4,1.3,4.9,2.2V60h6v11h-6c-1.3-1.5-2.8-2.7-4.6-3.6
		c-1.8-0.9-3.8-1.3-5.8-1.3c-1.9,0-3.7,0.4-5.4,1.1c-1.7,0.7-3.2,1.7-4.4,3c-1.3,1.3-2.3,2.8-3,4.4c-0.7,1.7-1.1,3.5-1.1,5.4
		c0,1.9,0.4,3.7,1.1,5.4c0.7,1.7,1.7,3.1,3,4.4c1.3,1.3,2.8,2.2,4.4,3c1.7,0.7,3.5,1.1,5.4,1.1c2.1,0,4-0.4,5.8-1.3
		c1.8-0.9,3.4-2,4.6-3.5c0.6-0.7,1.1-1.4,1.6-2.2c0.5-0.8,0.8-1.6,1.1-2.4l5.3,3C195.3,89.1,194.3,90.8,193.2,92.4z"/>
	<path class="st1" d="M218.5,60c2.7,0,5.3,0.5,7.7,1.6c2.4,1,4.5,2.5,6.3,4.3c1.8,1.8,3.2,3.9,4.3,6.3c1,2.4,1.6,5,1.6,7.7
		c0,2.8-0.5,5.4-1.6,7.8c-1,2.4-2.5,4.5-4.3,6.3c-1.8,1.8-3.9,3.2-6.3,4.2c-2.4,1-5,1.6-7.7,1.6c-2.8,0-5.4-0.5-7.8-1.6
		c-2.4-1-4.5-2.4-6.3-4.2c-1.8-1.8-3.2-3.9-4.3-6.3c-1-2.4-1.6-5-1.6-7.8c0-2.8,0.5-5.3,1.6-7.7c1-2.4,2.5-4.5,4.3-6.3
		c1.8-1.8,3.9-3.2,6.3-4.3C213.1,60.6,215.7,60,218.5,60z M218.5,93.8c1.9,0,3.7-0.4,5.4-1.1c1.7-0.7,3.2-1.7,4.4-3
		c1.3-1.3,2.3-2.8,3-4.4c0.7-1.7,1.1-3.5,1.1-5.4c0-1.9-0.4-3.7-1.1-5.4c-0.7-1.7-1.7-3.2-3-4.4c-1.3-1.3-2.8-2.3-4.4-3
		c-1.7-0.7-3.5-1.1-5.4-1.1c-1.9,0-3.7,0.4-5.4,1.1c-1.7,0.7-3.2,1.7-4.5,3c-1.3,1.3-2.3,2.8-3,4.4c-0.7,1.7-1.1,3.5-1.1,5.4
		c0,1.9,0.4,3.7,1.1,5.4c0.7,1.7,1.7,3.2,3,4.4c1.3,1.3,2.8,2.3,4.5,3C214.8,93.5,216.6,93.8,218.5,93.8z"/>
	<path class="st1" d="M281.6,94v5.8h-13.3l0.1-2.3c-1,0.5-2.3,1-4,1.5c-1.7,0.5-3.6,0.8-5.6,0.7c-1.2,0-2.4-0.1-3.6-0.4
		c-1.2-0.3-2.4-0.8-3.5-1.6c-1.1-0.8-2.1-1.9-3.1-3.2c-0.9-1.4-1.7-3.1-2.2-5.3V69.5c0-1.1-0.4-2-1.1-2.7c-0.7-0.7-1.6-1.1-2.7-1.1
		H239v-5.8h13.3v27.5c0.2,0.9,0.7,1.9,1.4,3.1c0.7,1.2,1.7,2.2,3,2.9c1.3,0.7,2.9,0.9,4.8,0.6c1.9-0.3,4.2-1.5,6.9-3.7V69.5
		c0-1.1-0.4-2-1.1-2.7c-0.7-0.7-1.6-1.1-2.7-1.1h-3.7v-5.8h13.3v30.3c0,1.1,0.4,2,1.1,2.7c0.7,0.7,1.6,1.1,2.6,1.1H281.6z"/>
	<path class="st1" d="M309.8,91.1c-0.3,0.9-0.5,1.9-0.8,2.9c-0.2,1-0.7,1.9-1.3,2.8c-0.6,0.9-1.6,1.6-2.9,2.2
		c-1.3,0.6-3.1,0.9-5.4,0.9c-2.9,0-5.1-0.5-6.5-1.6c-1.5-1.1-2.6-2.3-3.2-3.6c-0.7-1.5-1.1-3.3-1.2-5.4V66.8h-8.8V60h8.8V44.3h6.5
		V60h8.8v6.9h-8.8v22c0,0.5,0,1,0.1,1.6c0.1,0.6,0.2,1.1,0.6,1.5c0.3,0.4,0.9,0.8,1.6,1.1c0.7,0.3,1.9,0.4,3.4,0.4
		c0.9,0,1.6-0.3,2.2-0.9c0.5-0.6,1-1.3,1.3-2c0.4-0.9,0.7-1.8,0.9-2.9L309.8,91.1z"/>
	<path class="st1" d="M326,64.6c0.5-0.5,1.2-1.1,2-1.8c0.8-0.6,1.8-1.2,2.9-1.8c1.1-0.5,2.4-0.9,3.7-1.1c1.4-0.2,2.8-0.1,4.4,0.2
		c1.6,0.3,3.2,1.1,5,2.3v9.3h-4.4v-4.9c-1.5-0.7-3.1-1-4.7-0.8c-1.4,0.2-2.9,0.8-4.7,1.9c-1.7,1.1-3.5,3.1-5.2,5.9v16.1
		c0,1.1,0.4,2,1.1,2.8c0.7,0.8,1.6,1.2,2.7,1.2h2.9v5.8h-19.4V94h2.9c1.1,0,2-0.4,2.7-1.2c0.7-0.8,1.1-1.7,1.1-2.8V69.6
		c0-1.1-0.4-2-1.1-2.8c-0.7-0.8-1.7-1.2-2.7-1.2h-2.9V60h12.7v5.7C325.2,65.5,325.5,65.1,326,64.6z"/>
	<path class="st1" d="M340.6,91.8h8v8h-8V91.8z"/>
	<path class="st1" d="M413.6,94v5.8h-19.6V94h3c1.1,0,1.8-0.4,2.2-1.1c0.4-0.7,0.6-1.7,0.6-2.7l-4.9-17.1h-18l-5,17.2
		c0.1,1.1,0.3,1.9,0.6,2.6c0.4,0.7,1.1,1.1,2.2,1.1h3v5.8h-19.6V94h3c1.1,0,2.1-0.4,3.1-1.2c1-0.8,1.6-1.7,1.9-2.7l12.6-44h-4.4
		v-5.8h23.3v5.8h-4.4l12.6,44.1c0.3,1,1,1.8,1.9,2.6c1,0.8,2,1.2,3,1.2H413.6z M393.1,67l-6-20.9h-2.6l-6,20.9H393.1z"/>
	<path class="st1" d="M433.9,47.3c-0.8,0.7-1.2,1.6-1.2,2.7v40.2c0,1.1,0.4,2,1.2,2.7c0.8,0.7,1.7,1.1,2.8,1.1h3.8v5.7h-21.2v-5.7
		h3.8c1.1,0,2-0.4,2.8-1.1c0.8-0.7,1.2-1.7,1.2-2.7V50.1c0-1.1-0.4-2-1.2-2.7c-0.8-0.7-1.7-1.1-2.8-1.2h-3.8v-5.8h21.2v5.8h-3.8
		C435.6,46.2,434.7,46.6,433.9,47.3z"/>
	<path class="st1" d="M96.9,48.4C96.9,21.7,75.2,0,48.4,0C21.7,0,0,21.7,0,48.4c0,10.7,3.4,20.5,9.3,28.5l0,0l39.4,53.6l38.7-53.3
		l0,0C93.3,69.2,96.9,59.2,96.9,48.4z M72.5,44.7c0,0,0,18.4,0,21.3s-0.9,6.6-6.5,6.6c-5.6,0-31,0-34.6,0c-3.6,0-7.1-2.4-7.1-7
		c0-4.6,0-21,0-21h-5.6L48.4,15l29.7,29.7H72.5z"/>
	<rect x="40.1" y="33.8" class="st1" width="6.8" height="6.8"/>
	<rect x="50" y="33.8" class="st1" width="6.8" height="6.8"/>
	<rect x="40.1" y="43.8" class="st1" width="6.8" height="6.8"/>
	<rect x="50" y="43.8" class="st1" width="6.8" height="6.8"/>
</g>
</svg>
