<?xml version="1.0" encoding="utf-8"?><svg xmlns="http://www.w3.org/2000/svg" xmlns:xlink="http://www.w3.org/1999/xlink"><symbol viewBox="0 0 10 10" id="atach"><defs><path id="aa" d="M13.97 11.89l-2.58 2.3a.39.39 0 0 0-.02.57c.08.08.2.13.3.13.1 0 .21-.04.3-.11l2.57-2.31c.17-.15.18-.4.02-.56a.43.43 0 0 0-.59-.02"/><path id="ab" d="M17.2 9.46a2.87 2.87 0 0 0-3.84.04l-1.43 1.35a.39.39 0 0 0 0 .56c.16.16.43.16.59 0l1.42-1.34a2 2 0 0 1 2.67-.05c.33.31.5.74.5 1.21 0 .48-.2.93-.54 1.23l-1.58 1.42a.39.39 0 0 0-.01.56c.08.08.19.12.3.12.1 0 .2-.03.29-.1l1.57-1.42a2.46 2.46 0 0 0 .06-3.58"/><path id="ac" d="M13.47 15.26l-1.42 1.35a2 2 0 0 1-2.67.04 1.6 1.6 0 0 1-.5-1.2c0-.49.2-.93.54-1.24L11 12.8c.17-.15.17-.4.02-.56a.43.43 0 0 0-.6-.02l-1.57 1.41a2.46 2.46 0 0 0-.05 3.59c.5.47 1.18.71 1.86.71.7 0 1.42-.25 1.97-.75l1.43-1.36a.39.39 0 0 0 0-.56.43.43 0 0 0-.59 0"/></defs><use xlink:href="#aa" transform="translate(-8 -8)"/><use xlink:href="#ab" transform="translate(-8 -8)"/><use xlink:href="#ac" transform="translate(-8 -8)"/></symbol><symbol viewBox="0 0 12 10" id="bath"><defs><path id="ba" d="M260.8 468.86c.11 0 .11 0 .06.1a5.59 5.59 0 0 1-9.92-.03c-.03-.06-.03-.07.04-.07h.06zm-10.8-.58v.04l.21.54a6.2 6.2 0 0 0 2.1 2.59c.07.04.07.04.02.1l-1 .98c0 .02-.02.03-.04.06h.78c.06 0 .1 0 .13-.04l.67-.68c.03-.03.05-.04.1-.02l.76.35c.37.15.76.25 1.15.3a5.89 5.89 0 0 0 3.94-.65c.05-.01.08 0 .12.03l.67.67c.02.02.07.04.1.04h.79v-.02l-1.08-1.07a6.27 6.27 0 0 0 2.4-3.22z"/><path id="bb" d="M255.9 467.93h-5.81c-.08 0-.08 0-.08-.07v-.8c0-.03.01-.04.05-.04h11.03c.12 0 .1 0 .1-.1v-2.05c0-.52-.25-.9-.72-1.14a1.24 1.24 0 0 0-1.69.7c-.04.12-.05.24-.07.36-.01.05-.02.07-.08.07h-.48c-.05 0-.06-.01-.06-.07.01-.42.16-.8.43-1.12a1.86 1.86 0 0 1 3.3 1.2l-.01 2.99c0 .07 0 .07-.09.07h-5.82"/></defs><g opacity=".8" transform="translate(-250 -463)"><use xlink:href="#ba" opacity=".8"/><use xlink:href="#bb" opacity=".8"/></g></symbol><symbol viewBox="0 0 12 9" id="bed"><defs><path id="ca" d="M218 464v8.73h12V464h-12z"/><path id="cc" d="M221.97 467.87h-.82a.17.17 0 0 1-.14-.05c-.13-.15-.27-.28-.41-.42l-.4-.4a.97.97 0 0 1-.1-.13.32.32 0 0 1 0-.4l.12-.14a595.39 595.39 0 0 1 1.58-1.58.3.3 0 0 1 .34 0l.13.1 1.5 1.52c.05.06.1.13.13.2.05.14 0 .26-.1.36l-.3.32-.54.54c-.06.07-.12.09-.2.09h-.79zm2.04 1.81h-5.16c-.06 0-.08-.01-.08-.08v-.88c0-.06.01-.08.08-.08h9.98l.18.01c.14.02.23.1.23.24v.75c0 .05-.03.04-.06.04H224zm-4.01-1.81h-1.15c-.09 0-.09 0-.09-.08v-3.29c0-.25-.18-.41-.43-.39-.19.02-.32.19-.32.4l-.01 3.5v4.62c0 .1.01.1.1.1h.55c.11 0 .11 0 .11-.11v-2.06c0-.12 0-.12.12-.12h10.26c.1 0 .1 0 .1.11v2.1c0 .05.02.08.08.08h.6c.06 0 .08-.02.08-.1v-3.56c0-.14 0-.29-.06-.42-.15-.36-.4-.6-.77-.73-.15-.05-.32-.05-.48-.05h-4.74l.05-.06.22-.22c.24-.22.36-.49.39-.8a1.2 1.2 0 0 0-.33-.98l-1.42-1.43c-.17-.18-.38-.31-.63-.35-.42-.08-.8 0-1.11.32l-1.42 1.42c-.18.19-.3.4-.35.67-.05.33-.01.66.2.93.1.16.25.29.38.43l.07.07z"/><clipPath id="cb"><use xlink:href="#ca"/></clipPath></defs><g clip-path="url(#cb)" transform="translate(-218 -464)"><use xlink:href="#cc"/></g></symbol><symbol viewBox="0 0 18 16" id="cansel"><defs><path id="da" d="M644.23 592c.32 0 .58.1.8.31l2.44 2.28 1.99 1.84 1.9 1.79c.18.17.25.17.46-.02l6.2-5.81c.3-.28.63-.41 1.04-.39.45.03.92.41 1.03.82.13.46-.03.82-.38 1.14l-6.22 5.82c-.22.2-.22.2 0 .42l2.32 2.17 1.89 1.78 2.01 1.86c.68.62.52 1.47-.2 1.85a1.3 1.3 0 0 1-1.43-.19l-1.84-1.74-1.98-1.84-1.15-1.08-1.39-1.28c-.11-.1-.21-.1-.32 0l-.14.13-6.14 5.74c-.4.38-.85.48-1.38.31-.46-.14-.85-.84-.71-1.24.1-.27.24-.5.45-.7l4.65-4.34 1.58-1.46c.17-.16.17-.2 0-.35l-2.63-2.43-1.96-1.86c-.58-.54-1.15-1.1-1.75-1.62-.33-.3-.46-.82-.27-1.22.17-.36.58-.73 1.13-.68"/></defs><use xlink:href="#da" transform="translate(-643 -592)"/></symbol><symbol viewBox="0 0 12 11" id="car"><defs><path id="ea" d="M293.88 473.08H282v-10.05h11.88z"/><path id="ec" d="M293.25 467l-.18-.77h.32l.03.03c-.01.19.03.38-.03.57-.02.06-.07.12-.1.17h-.04zm-10.45-.77l-.18.77-.05-.03a.41.41 0 0 1-.11-.28v-.4c0-.05.01-.06.05-.06h.3zm5.14 5.48h-1.3c-.05 0-.07-.02-.07-.08v-.76c0-.06.01-.08.07-.08h2.6c.05 0 .07.02.07.08v.77c0 .05-.02.07-.07.07h-1.3zm4.93-4.2l-.35-.1-.78-.12c-.83-.1-1.67-.13-2.5-.14-1.03 0-2.06 0-3.09.02-.47 0-.94.03-1.41.06-.49.03-.97.1-1.44.2l-.3.08.01-.1c.07-.33.13-.66.22-.98.2-.72.45-1.42.88-2.03.24-.33.52-.61.9-.78.2-.09.42-.13.64-.13h4.6c.5 0 .9.22 1.23.57.32.33.55.73.74 1.15a8 8 0 0 1 .49 1.47l.16.75v.08zm-4.67.08l1.93.04c.54.02 1.09.07 1.63.12.38.04.76.1 1.12.25.2.08.38.19.46.4.05.12.07.26.07.39v1.95l.01.9c0 .05-.02.07-.07.07h-.32c-.05 0-.07.02-.07.06v.38c0 .27-.2.47-.47.47h-.89a.46.46 0 0 1-.46-.47v-.37c0-.06-.02-.07-.08-.07h-1.21c-.07 0-.09-.02-.09-.09v-1.02c0-.17-.08-.26-.26-.26h-3.12c-.18 0-.27.09-.27.27v1.02c0 .06-.02.08-.07.08h-1.22c-.06 0-.08.02-.08.08v.37c0 .26-.2.46-.46.46h-.9a.46.46 0 0 1-.47-.46v-.39c0-.05-.01-.06-.06-.06h-.32c-.06 0-.07-.02-.07-.08v-2.83c0-.44.18-.68.6-.83.36-.13.74-.19 1.12-.23 1.24-.13 2.5-.13 4.02-.15zm-6.2 2.63v1.48c0 .2.11.39.29.43.15.03.17.11.2.24.07.4.44.7.84.7h.98c.45 0 .84-.36.88-.81 0-.08.03-.1.1-.1h5.31c.04 0 .08 0 .08.07a.9.9 0 0 0 .9.85h.94c.12 0 .24-.03.34-.08a.9.9 0 0 0 .56-.78c0-.02.02-.05.04-.05.25-.03.42-.24.42-.5v-1.94c0-.4-.01-.8-.04-1.21a.93.93 0 0 0-.35-.7.31.31 0 0 1-.13-.23c0-.06 0-.1.06-.12.3-.18.45-.45.46-.8v-.42c0-.28-.2-.48-.48-.48h-.4c-.05 0-.08-.01-.1-.05l-.31-.8a4 4 0 0 0-.88-1.27c-.43-.4-.94-.63-1.53-.62h-4.6c-.2 0-.39.04-.57.1-.45.15-.8.43-1.1.8a5.53 5.53 0 0 0-.94 1.77c-.01.05-.04.07-.09.07h-.42c-.26 0-.46.2-.46.46v.41c0 .38.16.65.48.84l.04.04c.02.06-.03.23-.08.27a.99.99 0 0 0-.33.43c-.08.2-.1.42-.1.63-.01.46 0 .91 0 1.37z"/><path id="ed" d="M284.39 468.97h.56c.15 0 .25.1.25.24v.43c0 .15-.1.24-.25.24h-1.13a.45.45 0 0 1 0-.91h.57zm0 1.37h.61c.29-.01.57-.23.62-.5a2.35 2.35 0 0 0 0-.88.68.68 0 0 0-.65-.45h-1.15a.92.92 0 0 0-.9.8.92.92 0 0 0 .89 1.03h.58z"/><path id="ee" d="M291.48 469.88h-.56c-.15 0-.24-.1-.24-.25v-.42c0-.15.1-.24.23-.24h1.15a.45.45 0 0 1 0 .9l-.58.01zm0-1.37h-.58c-.38 0-.68.3-.68.69v.44c0 .4.3.7.7.7h1.13c.46 0 .85-.35.9-.8a.92.92 0 0 0-.89-1.03h-.57z"/><clipPath id="eb"><use xlink:href="#ea"/></clipPath></defs><g opacity=".8"><g clip-path="url(#eb)" opacity=".8" transform="translate(-282 -463)"><use xlink:href="#ec"/></g><use xlink:href="#ed" opacity=".8" transform="translate(-282 -463)"/><use xlink:href="#ee" opacity=".8" transform="translate(-282 -463)"/></g></symbol><symbol viewBox="0 0 11 17" id="fb"><defs><path id="fa" d="M1150.12 60l-.03-7.73H1147v-3.09h3.1v-1.93c0-2.87 1.77-4.25 4.33-4.25 1.22 0 2.27.1 2.58.13v3h-1.77c-1.4 0-1.66.66-1.66 1.63v1.42h4.05l-1.55 3.1h-2.5V60z"/></defs><use xlink:href="#fa" transform="translate(-1147 -43)"/></symbol><symbol viewBox="0 0 13 14" id="home"><defs><path id="ga" d="M181.04 253.94h-2.6v-3.34c0-.68-.63-1.23-1.4-1.23h-1.88c-.77 0-1.4.55-1.4 1.23v3.34h-2.48a.18.18 0 0 1-.18-.17v-6.78l5.04-4.73 5.03 4.54.05 6.97c0 .1-.08.17-.18.17zm1.22-7.38v-.01a.5.5 0 0 0-.17-.36l-5.58-5.05a.56.56 0 0 0-.76.01l-5.58 5.24c-.06.05-.1.1-.13.17a.48.48 0 0 0-.04.2v7c0 .69.57 1.24 1.28 1.24h3.03c.3 0 .55-.24.55-.53v-3.87c0-.07.12-.18.3-.18h1.88c.18 0 .3.1.3.18v3.87c0 .3.24.53.54.53h3.16c.7 0 1.28-.55 1.28-1.24l-.06-7.2z"/></defs><use fill-opacity=".8" xlink:href="#ga" transform="translate(-170 -241)"/></symbol><symbol viewBox="0 0 22 18" id="like"><defs><path id="ha" d="M491.93 594.33l.1-.42c.24-.82.79-1.43 1.46-1.93a5.2 5.2 0 0 1 1.99-.83 6.8 6.8 0 0 1 2.08-.12c.7.06 1.38.28 2.01.6a5.86 5.86 0 0 1 2.96 3.23c.25.66.37 1.35.31 2.05a6.87 6.87 0 0 1-.82 2.66 12.78 12.78 0 0 1-2.82 3.5c-.92.83-1.85 1.65-2.78 2.46l-2.62 2.24-1.12.96c-.43.39-1.24.35-1.7-.06-1.1-1-2.24-1.97-3.37-2.96l-2.72-2.4c-.72-.63-1.39-1.31-1.97-2.06-.63-.81-1.16-1.67-1.53-2.63a5.52 5.52 0 0 1-.36-2.62c.08-.76.35-1.47.75-2.12a6.16 6.16 0 0 1 8.19-2.12 3.9 3.9 0 0 1 1.76 2.16l.1.42.1-.01"/></defs><g clip-path="url(#clip-04F55F79-5DC7-4512-9ACB-7C56A36897CF)" transform="translate(-481 -591)"><use xlink:href="#ha"/></g></symbol><symbol viewBox="0 0 17 20" id="list"><defs><path id="ia" d="M1225.8 37.05a.76.76 0 1 0 0-1.52h-4.54a.76.76 0 1 0 0 1.52zm2.99 3.18a.76.76 0 1 0 0-1.52h-7.53a.76.76 0 1 0 0 1.52zm.03 3.17a.76.76 0 1 0 0-1.52h-7.52a.76.76 0 1 0 0 1.52zm-.03 3.18a.76.76 0 1 0 0-1.52h-7.53a.76.76 0 1 0 0 1.52zm2.57-14.06c.13 0 .25.11.25.25v16.46c0 .14-.12.25-.25.25h-12.6a.26.26 0 0 1-.24-.25V32.77c0-.14.11-.25.25-.25zm0 18.48c.97 0 1.77-.8 1.77-1.77V32.77c0-.98-.8-1.77-1.77-1.77h-12.6c-.97 0-1.76.8-1.76 1.77v16.46c0 .98.8 1.77 1.77 1.77z"/></defs><use xlink:href="#ia" transform="translate(-1217 -31)"/></symbol><symbol viewBox="0 0 14 20" id="local"><defs><path id="ja" d="M19.76 68.7a1.84 1.84 0 0 1 0-3.68 1.84 1.84 0 0 1 0 3.69zm-3.1-1.84a3.1 3.1 0 1 0 6.2 0 3.1 3.1 0 0 0-6.2 0zm8.46 1.65a9.77 9.77 0 0 1-1.03 2.24l-4.33 7.37L15.14 70l-.03-.05c-.11-.21-.36-.64-.53-1.19a6.56 6.56 0 0 1-.33-2 5.52 5.52 0 0 1 5.51-5.5 5.67 5.67 0 0 1 5.6 5c.07.62-.01 1.34-.24 2.25zM19.76 60A6.77 6.77 0 0 0 13 66.77c0 .77.13 1.55.38 2.37.22.67.51 1.2.64 1.42l.03.05v.01l5.15 9.06c.11.2.32.32.54.32.23 0 .44-.12.55-.3l4.86-8.28c.42-.65 1-1.84 1.18-2.6.27-1.06.36-1.91.28-2.69A6.85 6.85 0 0 0 19.76 60z"/></defs><use xlink:href="#ja" transform="translate(-13 -60)"/></symbol><symbol viewBox="0 0 19 19" id="search"><defs><path id="ka" d="M1121.23 44.67a6.06 6.06 0 0 1-4.26-1.74l-.01-.01a6.07 6.07 0 0 1 4.27-10.42 6.1 6.1 0 0 1 0 12.18zm-7.59-6.08c0 1.84.66 3.53 1.76 4.84l-5.18 5.18a.75.75 0 1 0 1.06 1.06l5.18-5.18a7.6 7.6 0 1 0 4.76-13.49 7.6 7.6 0 0 0-7.58 7.59z"/></defs><use xlink:href="#ka" transform="translate(-1110 -31)"/></symbol><symbol viewBox="0 0 20 19" id="start"><path d="M10 15.3l6.2 3.7-1.6-7L20 7.2l-7.2-.6L10 0 7.2 6.6 0 7.2 5.5 12l-1.6 7 6.1-3.7z"/></symbol><symbol viewBox="0 0 18 16" id="tel"><defs><path id="ma" d="M1289.95 45.26c-.01.14-.05.35-.1.63-.19 1.09-.52 3.13-.93 5.22a284.62 284.62 0 0 1-1.67 7.78c-.1.53-.4.92-.8 1.05a1.1 1.1 0 0 1-.35.06 1.8 1.8 0 0 1-1.12-.49l-.02-.02c-.15-.15-1.83-1.5-3.37-2.7-.35.36-1.6 1.67-2.32 2.25-.13.1-.29.16-.43.16a.42.42 0 0 1-.23-.06l-.1-.08a1.02 1.02 0 0 1-.43-.62l-1.4-4.78a48.24 48.24 0 0 1-3.84-1.38c-.57-.25-.86-.56-.84-.92.04-.54.84-.9 1.21-1.01a229.63 229.63 0 0 1 15.19-6.2c.7-.21 1.1-.2 1.36.02.3.25.25.7.2 1.1zm-11.46 13.08v.02c.08-.84.26-2.7.35-3.8v-.04l.02-.04c.02 0 .02-.02.02-.02l.02-.02v-.02c1.42-1.28 3.57-3.25 5.2-4.75l2.37-2.2.07-.12-.04.02c-.02 0-.02.02-.03.02l-.08.06-9.3 6.16c.23.78 1.32 4.5 1.4 4.73z"/></defs><use xlink:href="#ma" transform="translate(-1272 -44)"/></symbol><symbol viewBox="0 0 20 16" id="tw"><defs><path id="na" d="M1201.8 45.9c-.75.33-1.5.57-2.32.66a4.4 4.4 0 0 0 1.82-2.23c-.83.5-1.65.82-2.56.99a4 4 0 0 0-2.97-1.32 4.05 4.05 0 0 0-4.04 4.04c0 .33 0 .66.08.9a11.39 11.39 0 0 1-8.4-4.28 3.72 3.72 0 0 0-.59 2.06c0 1.4.75 2.64 1.82 3.38-.66 0-1.32-.16-1.82-.5v.1a4 4 0 0 0 3.22 3.95c-.33.08-.66.16-1.07.16-.25 0-.5 0-.74-.08a3.91 3.91 0 0 0 3.8 2.8 8.25 8.25 0 0 1-5.04 1.74c-.33 0-.66 0-.99-.08a11.54 11.54 0 0 0 6.19 1.81c7.5 0 11.54-6.19 11.54-11.55v-.5a9.77 9.77 0 0 0 2.06-2.05z"/></defs><use xlink:href="#na" transform="translate(-1182 -44)"/></symbol><symbol viewBox="0 0 22 15" id="you"><defs><path id="oa" d="M1247.31 49.66v3.69c0 2.33-.36 3.69-1.23 4.51-.84.81-2.15 1.14-4.5 1.14h-9.85c-4.84 0-5.73-1.9-5.73-5.65v-3.7c0-1.93 0-3.33.75-4.28.76-.97 2.2-1.37 4.98-1.37h9.85c2.71 0 4.13.37 4.9 1.29.78.92.83 2.32.83 4.37zm-7.26 1.74c0-.26-.14-.5-.37-.61l-4.47-2.32a.69.69 0 0 0-1 .6v4.67a.69.69 0 0 0 1 .6l4.47-2.33a.69.69 0 0 0 .37-.61z"/></defs><use xlink:href="#oa" transform="translate(-1226 -44)"/></symbol></svg>