<svg xmlns="http://www.w3.org/2000/svg" xmlns:xlink="http://www.w3.org/1999/xlink" width="10" height="10" viewBox="0 0 10 10"><defs><path id="hi82a" d="M13.97 11.89l-2.58 2.3a.39.39 0 0 0-.02.57c.08.08.2.13.3.13.1 0 .21-.04.3-.11l2.57-2.31c.17-.15.18-.4.02-.56a.43.43 0 0 0-.59-.02"/><path id="hi82b" d="M17.2 9.46a2.87 2.87 0 0 0-3.84.04l-1.43 1.35a.39.39 0 0 0 0 .56c.16.16.43.16.59 0l1.42-1.34a2 2 0 0 1 2.67-.05c.33.31.5.74.5 1.21 0 .48-.2.93-.54 1.23l-1.58 1.42a.39.39 0 0 0-.01.56c.08.08.19.12.3.12.1 0 .2-.03.29-.1l1.57-1.42a2.46 2.46 0 0 0 .06-3.58"/><path id="hi82c" d="M13.47 15.26l-1.42 1.35a2 2 0 0 1-2.67.04 1.6 1.6 0 0 1-.5-1.2c0-.49.2-.93.54-1.24L11 12.8c.17-.15.17-.4.02-.56a.43.43 0 0 0-.6-.02l-1.57 1.41a2.46 2.46 0 0 0-.05 3.59c.5.47 1.18.71 1.86.71.7 0 1.42-.25 1.97-.75l1.43-1.36a.39.39 0 0 0 0-.56.43.43 0 0 0-.59 0"/></defs><g><g transform="translate(-8 -8)"><g><use fill="#acb1bf" xlink:href="#hi82a"/></g><g><use fill="#acb1bf" xlink:href="#hi82b"/></g><g><use fill="#acb1bf" xlink:href="#hi82c"/></g></g></g></svg>