<svg xmlns="http://www.w3.org/2000/svg" xmlns:xlink="http://www.w3.org/1999/xlink" width="12" height="10" viewBox="0 0 12 10"><defs><path id="zerla" d="M260.8 468.86c.11 0 .11 0 .06.1a5.59 5.59 0 0 1-9.92-.03c-.03-.06-.03-.07.04-.07h.06zm-10.8-.58v.04l.21.54a6.2 6.2 0 0 0 2.1 2.59c.07.04.07.04.02.1l-1 .98c0 .02-.02.03-.04.06H252.07c.06 0 .1 0 .13-.04l.67-.68c.03-.03.05-.04.1-.02l.76.35c.37.15.76.25 1.15.3a5.89 5.89 0 0 0 3.94-.65c.05-.01.08 0 .12.03l.67.67c.02.02.07.04.1.04h.79v-.02l-1.08-1.07a6.27 6.27 0 0 0 2.4-3.22z"/><path id="zerlb" d="M255.9 467.93h-5.81c-.08 0-.08 0-.08-.07v-.75-.05c0-.03.01-.04.05-.04H261.09c.12 0 .1 0 .1-.1v-2.05c0-.52-.25-.9-.72-1.14a1.24 1.24 0 0 0-1.69.7c-.04.12-.05.24-.07.36-.01.05-.02.07-.08.07h-.48c-.05 0-.06-.01-.06-.07.01-.42.16-.8.43-1.12a1.86 1.86 0 0 1 3.3 1.2l-.01 2.99c0 .07 0 .07-.09.07h-5.82"/></defs><g><g opacity=".8" transform="translate(-250 -463)"><g opacity=".8"><use fill="#acb1bf" xlink:href="#zerla"/></g><g opacity=".8"><use fill="#acb1bf" xlink:href="#zerlb"/></g></g></g></svg>