<svg xmlns="http://www.w3.org/2000/svg" xmlns:xlink="http://www.w3.org/1999/xlink" width="18" height="16" viewBox="0 0 18 16"><defs><path id="a4e2a" d="M644.23 592c.32 0 .58.1.8.31l2.44 2.28 1.99 1.84 1.9 1.79c.18.17.25.17.46-.02l6.2-5.81c.3-.28.63-.41 1.04-.39.45.03.92.41 1.03.82.13.46-.03.82-.38 1.14l-6.22 5.82c-.22.2-.22.2 0 .42l2.32 2.17 1.89 1.78 2.01 1.86c.68.62.52 1.47-.2 1.85a1.3 1.3 0 0 1-1.43-.19l-1.84-1.74-1.98-1.84-1.15-1.08-1.39-1.28c-.11-.1-.21-.1-.32 0l-.14.13-6.14 5.74c-.4.38-.85.48-1.38.31-.46-.14-.85-.84-.71-1.24.1-.27.24-.5.45-.7l4.65-4.34 1.58-1.46c.17-.16.17-.2 0-.35l-2.63-2.43-1.96-1.86c-.58-.54-1.15-1.1-1.75-1.62-.33-.3-.46-.82-.27-1.22.17-.36.58-.73 1.13-.68"/></defs><g><g transform="translate(-643 -592)"><use fill="#fc577a" xlink:href="#a4e2a"/></g></g></svg>