<svg xmlns="http://www.w3.org/2000/svg" xmlns:xlink="http://www.w3.org/1999/xlink" width="17" height="20" viewBox="0 0 17 20"><defs><path id="9ik1a" d="M1225.8 37.05a.76.76 0 1 0 0-1.52h-4.54a.76.76 0 1 0 0 1.52zm2.99 3.18a.76.76 0 1 0 0-1.52h-7.53a.76.76 0 1 0 0 1.52zm.03 3.17a.76.76 0 1 0 0-1.52h-7.52a.76.76 0 1 0 0 1.52zm-.03 3.18a.76.76 0 1 0 0-1.52h-7.53a.76.76 0 1 0 0 1.52zm2.57-14.06c.13 0 .25.11.25.25v16.46c0 .14-.12.25-.25.25h-12.6a.26.26 0 0 1-.24-.25V32.77c0-.14.11-.25.25-.25zm0 18.48c.97 0 1.77-.8 1.77-1.77V32.77c0-.98-.8-1.77-1.77-1.77h-12.6c-.97 0-1.76.8-1.76 1.77v16.46c0 .98.8 1.77 1.77 1.77z"/></defs><g><g transform="translate(-1217 -31)"><use fill="#444956" xlink:href="#9ik1a"/></g></g></svg>