<svg xmlns="http://www.w3.org/2000/svg" xmlns:xlink="http://www.w3.org/1999/xlink" width="20" height="16" viewBox="0 0 20 16"><defs><path id="bhqua" d="M1201.8 45.9c-.75.33-1.5.57-2.32.66a4.4 4.4 0 0 0 1.82-2.23c-.83.5-1.65.82-2.56.99a4 4 0 0 0-2.97-1.32 4.05 4.05 0 0 0-4.04 4.04c0 .33 0 .66.08.9a11.39 11.39 0 0 1-8.4-4.28 3.72 3.72 0 0 0-.59 2.06c0 1.4.75 2.64 1.82 3.38-.66 0-1.32-.16-1.82-.5v.1a4 4 0 0 0 3.22 3.95c-.33.08-.66.16-1.07.16-.25 0-.5 0-.74-.08a3.91 3.91 0 0 0 3.8 2.8 8.25 8.25 0 0 1-5.04 1.74c-.33 0-.66 0-.99-.08a11.54 11.54 0 0 0 6.19 1.81c7.5 0 11.54-6.19 11.54-11.55v-.5a9.77 9.77 0 0 0 2.06-2.05z"/></defs><g><g transform="translate(-1182 -44)"><use fill="#f9f9f9" xlink:href="#bhqua"/></g></g></svg>