<svg xmlns="http://www.w3.org/2000/svg" xmlns:xlink="http://www.w3.org/1999/xlink" width="22" height="15" viewBox="0 0 22 15"><defs><path id="f62ra" d="M1247.31 49.66v3.69c0 2.33-.36 3.69-1.23 4.51-.84.81-2.15 1.14-4.5 1.14h-9.85c-4.84 0-5.73-1.9-5.73-5.65v-3.7c0-1.93 0-3.33.75-4.28.76-.97 2.2-1.37 4.98-1.37h9.85c2.71 0 4.13.37 4.9 1.29.78.92.83 2.32.83 4.37zm-7.26 1.74c0-.26-.14-.5-.37-.61l-4.47-2.32a.69.69 0 0 0-1 .6v4.67a.69.69 0 0 0 1 .6l4.47-2.33a.69.69 0 0 0 .37-.61z"/></defs><g><g transform="translate(-1226 -44)"><use fill="#ef4b0c" xlink:href="#f62ra"/></g></g></svg>