<?xml version="1.0" encoding="utf-8"?>
<!-- Generator: Adobe Illustrator 20.1.0, SVG Export Plug-In . SVG Version: 6.00 Build 0)  -->
<svg version="1.1" id="Layer_1" xmlns="http://www.w3.org/2000/svg" xmlns:xlink="http://www.w3.org/1999/xlink" x="0px" y="0px"
	 viewBox="0 0 146.5 211.8" style="enable-background:new 0 0 146.5 211.8;" xml:space="preserve">
<style type="text/css">
	.st0{fill:#B1B3B6;}
	.st1{fill:#082F36;}
</style>
<g>
	<ellipse class="st0" cx="73.2" cy="201.4" rx="73.2" ry="10.3"/>
	<path class="st1" d="M146.5,73.2C146.5,32.8,113.7,0,73.2,0C32.8,0,0,32.8,0,73.2c0,16.1,5.2,31,14,43.1l0,0l59.6,81l58.6-80.6l0,0
		C141.2,104.6,146.5,89.5,146.5,73.2z M109.7,67.6c0,0,0,27.9,0,32.3s-1.4,10-9.9,10c-8.5,0-46.9,0-52.3,0
		c-5.5,0-10.7-3.7-10.7-10.6c0-6.9,0-31.7,0-31.7h-8.4l44.9-44.9l44.9,44.9H109.7z"/>
	<rect x="60.6" y="51.2" class="st1" width="10.2" height="10.2"/>
	<rect x="75.7" y="51.2" class="st1" width="10.2" height="10.2"/>
	<rect x="60.6" y="66.2" class="st1" width="10.2" height="10.2"/>
	<rect x="75.7" y="66.2" class="st1" width="10.2" height="10.2"/>
</g>
</svg>
