<?xml version="1.0" encoding="utf-8"?>
<!-- Generator: Adobe Illustrator 20.1.0, SVG Export Plug-In . SVG Version: 6.00 Build 0)  -->
<svg version="1.1" id="Layer_1" xmlns="http://www.w3.org/2000/svg" xmlns:xlink="http://www.w3.org/1999/xlink" x="0px" y="0px"
	 viewBox="0 0 441.5 140.5" style="enable-background:new 0 0 441.5 140.5;" xml:space="preserve">
<style type="text/css">
	.st0{display:none;fill:#082F36;}
	.st1{fill:#B1B3B6;}
	.st2{fill:#FFFFFF;stroke:#FFFFFF;stroke-miterlimit:10;}
</style>
<rect x="-199.7" y="-227.9" class="st0" width="841.9" height="595.3"/>
<ellipse class="st1" cx="48.9" cy="133.7" rx="48.4" ry="6.8"/>
<path class="st2" d="M152.6,74c1.6,2.7,2.5,5.8,2.5,9.3c0,4.9-1.7,9-5.2,12.2c-3.5,3.2-7.8,4.8-12.9,4.8c-2,0-4.1-0.3-6.1-0.9
	c-2.1-0.6-4.1-1.4-6-2.5c-0.9-0.4-1.7-0.5-2.4-0.3c-0.7,0.2-1,0.8-1,1.8v1.9h-5.7V78.5h5.7v8.1c0.6,1.2,1.5,2.3,2.7,3.3
	c1.1,1,2.4,1.8,3.8,2.5c1.4,0.7,2.8,1.2,4.3,1.6c1.5,0.3,3,0.5,4.4,0.5c1.4,0,2.8-0.3,4.4-0.8c1.5-0.5,2.8-1.3,3.8-2.2
	c1-0.9,1.8-1.9,2.4-3.1c0.7-1.2,1-2.5,1-3.9c0-1.4-0.1-2.7-0.4-4.1c-0.3-1.3-1.1-2.7-2.5-4.1c-0.7-0.7-1.9-1.4-3.5-1.9
	c-1.7-0.5-3.6-1.1-5.8-1.7c-2.6-0.7-4.7-1.3-6.5-1.8c-1.8-0.5-3.3-0.9-4.6-1.3c-1.4-0.4-2.7-1-4.1-1.8c-1.3-0.8-2.4-1.7-3.1-2.9
	c-1.5-2.2-2.2-4.9-2.2-8.1c0-4.8,1.6-8.7,4.8-11.6c3.2-2.9,7.3-4.3,12.1-4.3c1.6,0,3.4,0.1,5.2,0.4c1.8,0.3,3.5,0.8,5.1,1.6
	c0.3,0.2,0.7,0.3,1.2,0.4c0.5,0.1,0.9,0.2,1.3,0.2c0.4,0,0.7-0.2,1-0.5c0.3-0.3,0.4-0.8,0.4-1.5v-0.7h5.7v18.1h-5.7v-6.2
	c-1.5-2.3-3.5-3.8-5.9-4.7c-2.4-0.9-5-1.3-7.6-1.3c-1.5,0-3.1,0.3-4.6,0.8c-1.5,0.5-2.7,1.2-3.6,1.9c-0.9,0.7-1.5,1.7-2.1,2.8
	c-0.5,1.1-0.8,2.2-0.8,3.2c0,0.8,0,1.7,0.1,2.6c0.1,1,0.4,1.8,1,2.6c0.5,0.7,1.2,1.3,2,1.6c0.8,0.3,1.6,0.7,2.3,0.9
	c0.6,0.3,1.6,0.6,2.9,1c1.3,0.4,2.9,0.8,4.9,1.4c2.6,0.6,4.8,1.3,6.6,1.9c1.8,0.6,3.3,1.2,4.4,1.8c1.2,0.6,2.3,1.2,3.5,1.8
	C150.7,71.6,151.7,72.6,152.6,74z"/>
<path class="st2" d="M193.7,92.9c-1.9,2.3-4.1,4.1-6.7,5.4c-2.6,1.3-5.5,2-8.7,2c-2.8,0-5.4-0.5-7.8-1.6c-2.4-1-4.5-2.4-6.3-4.2
	c-1.8-1.8-3.2-3.9-4.2-6.3c-1-2.4-1.6-5-1.6-7.7c0-2.8,0.5-5.3,1.6-7.7c1-2.4,2.4-4.5,4.2-6.3c1.8-1.8,3.9-3.2,6.3-4.3
	c2.4-1,5-1.6,7.8-1.6c1.9,0,3.8,0.3,5.5,0.8c1.8,0.5,3.4,1.3,4.9,2.2v-3.2h6v11h-6c-1.3-1.5-2.8-2.7-4.6-3.6
	c-1.8-0.9-3.8-1.3-5.8-1.3c-1.9,0-3.7,0.4-5.4,1.1c-1.7,0.7-3.2,1.7-4.4,3c-1.3,1.3-2.3,2.8-3,4.4c-0.7,1.7-1.1,3.5-1.1,5.4
	c0,1.9,0.4,3.7,1.1,5.4c0.7,1.7,1.7,3.1,3,4.4c1.3,1.3,2.8,2.2,4.4,3c1.7,0.7,3.5,1.1,5.4,1.1c2.1,0,4-0.4,5.8-1.3
	c1.8-0.9,3.4-2,4.6-3.5c0.6-0.7,1.1-1.4,1.6-2.2c0.5-0.8,0.8-1.6,1.1-2.4l5.3,3C195.8,89.6,194.8,91.3,193.7,92.9z"/>
<path class="st2" d="M219,60.5c2.7,0,5.3,0.5,7.7,1.6c2.4,1,4.5,2.5,6.3,4.3c1.8,1.8,3.2,3.9,4.3,6.3c1,2.4,1.6,5,1.6,7.7
	c0,2.8-0.5,5.4-1.6,7.8c-1,2.4-2.5,4.5-4.3,6.3c-1.8,1.8-3.9,3.2-6.3,4.2c-2.4,1-5,1.6-7.7,1.6c-2.8,0-5.4-0.5-7.8-1.6
	c-2.4-1-4.5-2.4-6.3-4.2c-1.8-1.8-3.2-3.9-4.3-6.3c-1-2.4-1.6-5-1.6-7.8c0-2.8,0.5-5.3,1.6-7.7c1-2.4,2.5-4.5,4.3-6.3
	c1.8-1.8,3.9-3.2,6.3-4.3C213.6,61.1,216.2,60.5,219,60.5z M219,94.3c1.9,0,3.7-0.4,5.4-1.1c1.7-0.7,3.2-1.7,4.4-3
	c1.3-1.3,2.3-2.8,3-4.4c0.7-1.7,1.1-3.5,1.1-5.4c0-1.9-0.4-3.7-1.1-5.4c-0.7-1.7-1.7-3.2-3-4.4c-1.3-1.3-2.8-2.3-4.4-3
	c-1.7-0.7-3.5-1.1-5.4-1.1c-1.9,0-3.7,0.4-5.4,1.1c-1.7,0.7-3.2,1.7-4.5,3c-1.3,1.3-2.3,2.8-3,4.4c-0.7,1.7-1.1,3.5-1.1,5.4
	c0,1.9,0.4,3.7,1.1,5.4c0.7,1.7,1.7,3.2,3,4.4c1.3,1.3,2.8,2.3,4.5,3C215.3,94,217.1,94.3,219,94.3z"/>
<path class="st2" d="M282.1,94.5v5.8h-13.3L269,98c-1,0.5-2.3,1-4,1.5c-1.7,0.5-3.6,0.8-5.6,0.7c-1.2,0-2.4-0.1-3.6-0.4
	c-1.2-0.3-2.4-0.8-3.5-1.6c-1.1-0.8-2.1-1.9-3.1-3.2c-0.9-1.4-1.7-3.1-2.2-5.3V70c0-1.1-0.4-2-1.1-2.7c-0.7-0.7-1.6-1.1-2.7-1.1
	h-3.7v-5.8h13.3v27.5c0.2,0.9,0.7,1.9,1.4,3.1c0.7,1.2,1.7,2.2,3,2.9c1.3,0.7,2.9,0.9,4.8,0.6c1.9-0.3,4.2-1.5,6.9-3.7V70
	c0-1.1-0.4-2-1.1-2.7c-0.7-0.7-1.6-1.1-2.7-1.1h-3.7v-5.8h13.3v30.3c0,1.1,0.4,2,1.1,2.7c0.7,0.7,1.6,1.1,2.6,1.1H282.1z"/>
<path class="st2" d="M310.3,91.6c-0.3,0.9-0.5,1.9-0.8,2.9c-0.2,1-0.7,1.9-1.3,2.8c-0.6,0.9-1.6,1.6-2.9,2.2
	c-1.3,0.6-3.1,0.9-5.4,0.9c-2.9,0-5.1-0.5-6.5-1.6c-1.5-1.1-2.6-2.3-3.2-3.6c-0.7-1.5-1.1-3.3-1.2-5.4V67.3h-8.8v-6.9h8.8V44.8h6.5
	v15.6h8.8v6.9h-8.8v22c0,0.5,0,1,0.1,1.6c0.1,0.6,0.2,1.1,0.6,1.5c0.3,0.4,0.9,0.8,1.6,1.1c0.7,0.3,1.9,0.4,3.4,0.4
	c0.9,0,1.6-0.3,2.2-0.9c0.5-0.6,1-1.3,1.3-2c0.4-0.9,0.7-1.8,0.9-2.9L310.3,91.6z"/>
<path class="st2" d="M326.5,65.1c0.5-0.5,1.2-1.1,2-1.8c0.8-0.6,1.8-1.2,2.9-1.8c1.1-0.5,2.4-0.9,3.7-1.1c1.4-0.2,2.8-0.1,4.4,0.2
	c1.6,0.3,3.2,1.1,5,2.3v9.3h-4.4v-4.9c-1.5-0.7-3.1-1-4.7-0.8c-1.4,0.2-2.9,0.8-4.7,1.9c-1.7,1.1-3.5,3.1-5.2,5.9v16.1
	c0,1.1,0.4,2,1.1,2.8c0.7,0.8,1.6,1.2,2.7,1.2h2.9v5.8h-19.4v-5.8h2.9c1.1,0,2-0.4,2.7-1.2c0.7-0.8,1.1-1.7,1.1-2.8V70.1
	c0-1.1-0.4-2-1.1-2.8c-0.7-0.8-1.7-1.2-2.7-1.2h-2.9v-5.7h12.7v5.7C325.7,66,326,65.6,326.5,65.1z"/>
<path class="st2" d="M341.1,92.3h8v8h-8V92.3z"/>
<path class="st2" d="M414.1,94.5v5.8h-19.6v-5.8h3c1.1,0,1.8-0.4,2.2-1.1c0.4-0.7,0.6-1.7,0.6-2.7l-4.9-17.1h-18l-5,17.2
	c0.1,1.1,0.3,1.9,0.6,2.6c0.4,0.7,1.1,1.1,2.2,1.1h3v5.8h-19.6v-5.8h3c1.1,0,2.1-0.4,3.1-1.2c1-0.8,1.6-1.7,1.9-2.7l12.6-44h-4.4
	v-5.8h23.3v5.8h-4.4l12.6,44.1c0.3,1,1,1.8,1.9,2.6c1,0.8,2,1.2,3,1.2H414.1z M393.6,67.5l-6-20.9H385l-6,20.9H393.6z"/>
<path class="st2" d="M434.4,47.8c-0.8,0.7-1.2,1.6-1.2,2.7v40.2c0,1.1,0.4,2,1.2,2.7c0.8,0.7,1.7,1.1,2.8,1.1h3.8v5.7h-21.2v-5.7
	h3.8c1.1,0,2-0.4,2.8-1.1c0.8-0.7,1.2-1.7,1.2-2.7V50.6c0-1.1-0.4-2-1.2-2.7c-0.8-0.7-1.7-1.1-2.8-1.2h-3.8v-5.8H441v5.8h-3.8
	C436.1,46.7,435.2,47.1,434.4,47.8z"/>
<path class="st2" d="M97.4,48.9c0-26.7-21.7-48.4-48.4-48.4C22.2,0.5,0.5,22.2,0.5,48.9c0,10.7,3.4,20.5,9.3,28.5l0,0L49.1,131
	l38.7-53.3l0,0C93.8,69.7,97.4,59.7,97.4,48.9z M73,45.2c0,0,0,18.4,0,21.3s-0.9,6.6-6.5,6.6c-5.6,0-31,0-34.6,0
	c-3.6,0-7.1-2.4-7.1-7c0-4.6,0-21,0-21h-5.6l29.7-29.7l29.7,29.7H73z"/>
<rect x="40.6" y="34.3" class="st2" width="6.8" height="6.8"/>
<rect x="50.5" y="34.3" class="st2" width="6.8" height="6.8"/>
<rect x="40.6" y="44.3" class="st2" width="6.8" height="6.8"/>
<rect x="50.5" y="44.3" class="st2" width="6.8" height="6.8"/>
</svg>
